<?xml version="1.0" encoding="utf-8"?>
<!-- Generator: Adobe Illustrator 23.0.1, SVG Export Plug-In . SVG Version: 6.00 Build 0)  -->
<svg version="1.1" id="Layer_1" xmlns="http://www.w3.org/2000/svg" xmlns:xlink="http://www.w3.org/1999/xlink" x="0px" y="0px"
	 width="40.5px" height="25.3px" viewBox="0 0 40.5 25.3" style="enable-background:new 0 0 40.5 25.3;" xml:space="preserve">
<style type="text/css">
	.st0{fill:#A64826;}
</style>
<path class="st0" d="M39,25.3c-12.5,0-25,0-37.4,0c0-0.1,0.1-0.2,0.1-0.2c3.8-4.4,7.7-8.7,11.5-13.1c0.2-0.2,0.3-0.2,0.5,0
	c2.1,1.6,4.3,3.2,6.4,4.8c0.2,0.1,0.3,0.1,0.5,0c2.1-1.6,4.3-3.2,6.4-4.8c0.2-0.1,0.2-0.2,0.4,0c3.9,4.4,7.7,8.8,11.6,13.2
	C39,25.2,39,25.3,39,25.3z"/>
<path class="st0" d="M0.2,0C13.6,0,27,0,40.4,0c0,0.1-0.1,0.1-0.1,0.2C33.7,5.1,27.1,10,20.5,14.9c-0.1,0.1-0.2,0.1-0.4,0
	C13.5,10,6.9,5,0.3,0.1C0.3,0.1,0.2,0.1,0.2,0z"/>
<path class="st0" d="M0,25.2C0,17.4,0,9.6,0,1.9c0.1-0.1,0.1,0,0.2,0.1c4,3,8,6,12,9c0.1,0.1,0.2,0.2,0.1,0.3
	c-4.1,4.6-8.1,9.2-12.2,13.9C0.1,25.1,0.1,25.1,0,25.2z"/>
<path class="st0" d="M28.2,11c4.1-3.1,8.2-6.1,12.4-9.2c0,7.8,0,15.5,0,23.3C36.4,20.4,32.3,15.7,28.2,11z"/>
</svg>
