<?xml version="1.0" encoding="utf-8"?>
<!-- Generator: Adobe Illustrator 23.0.1, SVG Export Plug-In . SVG Version: 6.00 Build 0)  -->
<svg version="1.1" id="Layer_1" xmlns="http://www.w3.org/2000/svg" xmlns:xlink="http://www.w3.org/1999/xlink" x="0px" y="0px"
	 width="27.7px" height="40px" viewBox="0 0 27.7 40" style="enable-background:new 0 0 27.7 40;" xml:space="preserve">
<style type="text/css">
	.st0{fill:#A64826;}
</style>
<path class="st0" d="M26.4,19.1c1.2-2.9,1.7-5.9,0.8-9c-1.7-5.5-5.4-8.8-11-9.9c-0.2,0-0.3-0.1-0.4-0.1c-0.3,0-0.6,0.1-0.9-0.2
	c-0.9,0-1.8,0-2.8,0c-0.2,0.4-0.6,0.2-1,0.3C4.6,1.6-0.2,7.7,0,14.2c0.1,1.8,0.6,3.4,1.3,5c2.2,5.5,5.4,10.5,8.7,15.4
	c1.2,1.8,2.5,3.6,3.7,5.4c0.1,0,0.2,0,0.3,0c1.8-2.7,3.7-5.3,5.4-8C22,27.9,24.5,23.7,26.4,19.1z M13.8,18.9c-2.8,0-5-2.3-5-5.1
	c0-2.8,2.3-5,5.1-5c2.8,0,5,2.3,5,5.1C18.9,16.7,16.6,18.9,13.8,18.9z"/>
</svg>
