<svg id="Layer_1" data-name="Layer 1" xmlns="http://www.w3.org/2000/svg" viewBox="0 0 200 125"><defs><style>.cls-1{fill:none;stroke:#4d4d4d;stroke-miterlimit:10;stroke-width:11px;}.cls-2{fill:#4d4d4d;}</style></defs><title>Artboard 1 copy</title><path class="cls-1" d="M103.57,36S79.79,83.56,79.79,102.58H121l12.68,11.1,9.51-11.1H186S144.79,58.2,149.54,7.48"/><path class="cls-2" d="M133.31,49.92c-.37,3.11-.56,6.37-.62,9.55s0,6.37.26,9.51a79.63,79.63,0,0,0,1.26,9.24,55.6,55.6,0,0,0,2.49,8.6l-10.59,3A66.3,66.3,0,0,1,125,79.18a88,88,0,0,1,.47-10.32c.36-3.39.88-6.73,1.54-10s1.45-6.51,2.46-9.79Z"/><path class="cls-1" d="M6.88,31.25l46,76.09s6.34-57.07,46-103"/></svg>